# xmcd CD database file
#
# Track frame offsets:
#	150
#	7740
#	16280
#	28607
#	41890
#	52920
#	61130
#	75392
#	87462
#	96565
#	104477
#	123965
#	134940
#	150600
#	167487
#	177490
#	183382
#
# Disc length: 2521 seconds
#
# Revision: 4
# Processed by: cddbd v1.5.2PL0 Copyright (c) Steve Scherf et al.
# Submitted via: CDex 1.50Beta7
#
DISCID=da09d711
DTITLE=Johnny Cash - Live Recordings From The Louisiana Hayride (1955-1963)
DYEAR=2003
DGENRE=Country
TTITLE0=Hey, Porter (Nov 13, 1955)
TTITLE1=Luther Played The Boogie (Nov 13, 1955)
TTITLE2=So Doggone Lonesome (May 12, 1956)
TTITLE3=I Walk The Line (June 23, 1956)
TTITLE4=Give My Love To Rose (March 7, 1959)
TTITLE5=Goodbye Little Darlin' (March 7, 1959)
TTITLE6=Rock Island Line (March 7, 1959)
TTITLE7=Big River (Feb 24, 1962)
TTITLE8=Five Feet High And Rising (Feb 24, 1962)
TTITLE9=Guess Things Happen That Way (Feb 24, 1962)
TTITLE10=I Got Stripes (Feb 24, 1962)
TTITLE11=Folsom Prison Blues (Feb 24, 1962)
TTITLE12=When I've Learned (Feb 24, 1962)
TTITLE13=Ballad Of The Harp Weaver (Feb 24, 1962)
TTITLE14=The Rebel - Johhny Yuma (Apr 21, 1962
TTITLE15=Busted (June 15, 1963)
TTITLE16=Southern Maid Doughnuts Commercial (March 7, 1959)
EXTD=YEAR: 2003
EXTT0=
EXTT1=
EXTT2=
EXTT3=
EXTT4=
EXTT5=
EXTT6=
EXTT7=
EXTT8=
EXTT9=
EXTT10=
EXTT11=
EXTT12=
EXTT13=
EXTT14=
EXTT15=
EXTT16=
PLAYORDER=
